<svg viewBox="0 0 81 22" xmlns="http://www.w3.org/2000/svg">
    <path fill-rule="evenodd" clip-rule="evenodd"
          d="M26.3503 0C26.2439 0 26.1498 0.0678493 26.1169 0.168023L19.0649 21.6818C19.0134 21.8389 19.1316 22 19.2983 22H24.1358C24.2424 22 24.3368 21.9318 24.3694 21.8313L26.1634 16.304L26.1605 21.7568C26.1605 21.8911 26.2703 22 26.4058 22H26.6248H31.4422H31.5603C31.6413 22 31.7172 21.9602 31.7629 21.8938L36.3282 15.2555L34.2303 21.6821C34.179 21.8391 34.2972 22 34.4636 22H39.4304C39.5366 22 39.6309 21.9322 39.6636 21.8321L46.7181 0.318284C46.7696 0.161222 46.6515 0 46.4848 0H46.3554H41.4865H41.4377C41.3566 0 41.2807 0.0397652 41.235 0.106094L31.6445 14.0351L31.5675 0.241793C31.5668 0.108015 31.4572 0 31.3223 0H31.1186H26.4171H26.3503Z"></path>
    <path fill-rule="evenodd" clip-rule="evenodd"
          d="M48.5443 0.167943C48.5771 0.0677693 48.6714 0 48.7775 0H49.13H54.145H61.3116C61.4786 0 61.5968 0.161702 61.5447 0.318924L60.2338 4.27683C60.2007 4.37668 60.1067 4.44413 60.0007 4.44413H52.8497C52.7437 4.44413 52.6497 4.51158 52.6166 4.61136L48.4266 17.2538C48.3745 17.411 48.4927 17.5728 48.6597 17.5728H55.5524C55.7193 17.5728 55.8375 17.7344 55.7855 17.8916L54.4828 21.8325C54.4498 21.9324 54.3557 21.9999 54.2496 21.9999H46.8537L46.8536 22H41.7142C41.5476 22 41.4294 21.8388 41.481 21.6817L48.5443 0.167943Z"></path>
    <path fill-rule="evenodd" clip-rule="evenodd"
          d="M64.3973 0H63.5946C63.4883 0 63.3941 0.0678493 63.3612 0.168023L58.722 14.3282C58.6706 14.4853 58.7887 14.6464 58.9554 14.6464H63.8745C63.9805 14.6464 64.0751 14.577 64.1082 14.4771C65.4874 10.3105 65.9938 8.8169 66.5002 7.32325C66.764 6.54514 67.0278 5.76696 67.4149 4.61096C67.4483 4.51158 67.5422 4.44413 67.6479 4.44413H73.7454C73.9125 4.44413 74.0304 4.60584 73.9779 4.76306L69.7882 17.4055C69.7551 17.5054 69.6611 17.5728 69.5551 17.5728H57.8545C57.7475 17.5728 57.6528 17.6416 57.6206 17.7427L56.3651 21.6836C56.3151 21.8403 56.4332 21.9999 56.599 21.9999H68.2654C68.2654 21.9999 68.2654 22 68.2655 22H73.873C73.9787 22 74.0732 21.9323 74.1055 21.8323L80.0679 3.71355C80.084 3.66475 80.084 3.6121 80.0679 3.56329L78.9578 0.168183C78.9255 0.0679292 78.831 0 78.7244 0H76.9006H75.5571H68.9482H64.3973Z"></path>
    <path fill-rule="evenodd" clip-rule="evenodd"
          d="M7.29942 0C7.19317 0 7.09903 0.0678493 7.06617 0.168023L2.85665 13.0067C2.8204 13.1172 2.90356 13.2305 3.02079 13.2305H3.25944L3.25952 13.2306H15.5919C15.6975 13.2306 15.7913 13.1637 15.8246 13.0644L17.155 9.10646C17.208 8.949 17.0897 8.78649 16.9223 8.78649H10.0831C9.91496 8.78649 9.7966 8.62263 9.85093 8.46485L11.1795 4.60864C11.2134 4.5103 11.3068 4.44413 11.4117 4.44413H22.759C22.8653 4.44413 22.9596 4.37629 22.9923 4.27603L24.2881 0.318124C24.3395 0.161062 24.2213 0 24.0547 0H12.7674H7.67541H7.29942ZM1.54379 17.5559C1.43746 17.5559 1.34332 17.6236 1.31046 17.7238L0.0122214 21.6817C-0.0393692 21.8388 0.078829 21.9999 0.245469 21.9999H16.9998C17.106 21.9999 17.2001 21.9322 17.2331 21.8322L18.5363 17.8743C18.5881 17.7172 18.47 17.5559 18.3032 17.5559H1.54379Z"></path>
</svg>